<mxfile host="app.diagrams.net" modified="2024-06-06T14:46:15.012Z" agent="Mozilla/5.0 (Macintosh; Intel Mac OS X 10_15_7) AppleWebKit/537.36 (KHTML, like Gecko) Chrome/125.0.0.0 Safari/537.36" version="24.4.13" etag="Ob0oeYrlrzcwSh-VtJEo" type="github">
  <diagram name="Страница — 1" id="qtZ63TkXdyudwPIi29dU">
    <mxGraphModel>
      <root>
        <mxCell id="0" />
        <mxCell id="1" parent="0" />
      </root>
    </mxGraphModel>
  </diagram>
</mxfile>
